HIERARCHY
ROOT joint_Root
{
	OFFSET 0.0 0.0 0.0
	CHANNELS 6 Xposition Yposition Zposition Zrotation Xrotation Yrotation 
	JOINT Hips
	{
		OFFSET -0.726466 93.3139 -2.00062
		CHANNELS 6 Xposition Yposition Zposition Zrotation Xrotation Yrotation 
		JOINT Spine
		{
			OFFSET 15.7357 0.0 0.0
			CHANNELS 6 Xposition Yposition Zposition Zrotation Xrotation Yrotation 
			JOINT Chest
			{
				OFFSET 8.98455 -0.406207 0.0
				CHANNELS 6 Xposition Yposition Zposition Zrotation Xrotation Yrotation 
				JOINT Neck
				{
					OFFSET 16.3773 0.0 0.0
					CHANNELS 6 Xposition Yposition Zposition Zrotation Xrotation Yrotation 
					JOINT Head
					{
						OFFSET 6.45672 0.0 0.0
						CHANNELS 6 Xposition Yposition Zposition Zrotation Xrotation Yrotation 
						End Site
						{
							OFFSET 0.0 0.0 0.0
						}
					}
				}
				JOINT Shoulder_L
				{
					OFFSET 12.9942 -0.242716 4.98039
					CHANNELS 6 Xposition Yposition Zposition Zrotation Xrotation Yrotation 
					JOINT UpperArm_L
					{
						OFFSET 5.34809 0.0 0.0
						CHANNELS 6 Xposition Yposition Zposition Zrotation Xrotation Yrotation 
						JOINT LowerArm_L
						{
							OFFSET 24.3286 1.87007e-05 0.0
							CHANNELS 6 Xposition Yposition Zposition Zrotation Xrotation Yrotation 
							JOINT Hand_L
							{
								OFFSET 22.2916 0.0 0.0
								CHANNELS 6 Xposition Yposition Zposition Zrotation Xrotation Yrotation 
								End Site
								{
									OFFSET 0.0 0.0 0.0
								}
							}
						}
					}
				}
				JOINT Shoulder_R
				{
					OFFSET 12.9945 -0.242716 -4.98039
					CHANNELS 6 Xposition Yposition Zposition Zrotation Xrotation Yrotation 
					JOINT UpperArm_R
					{
						OFFSET -5.34813 0.0 0.0
						CHANNELS 6 Xposition Yposition Zposition Zrotation Xrotation Yrotation 
						JOINT LowerArm_R
						{
							OFFSET -24.3289 0.000322201 0.0
							CHANNELS 6 Xposition Yposition Zposition Zrotation Xrotation Yrotation 
							JOINT Hand_R
							{
								OFFSET -22.2915 -0.000108084 0.0
								CHANNELS 6 Xposition Yposition Zposition Zrotation Xrotation Yrotation 
								End Site
								{
									OFFSET 0.0 0.0 0.0
								}
							}
						}
					}
				}
			}
		}
		JOINT UpperLeg_L
		{
			OFFSET -2.19248 -6.46944 0.0
			CHANNELS 6 Xposition Yposition Zposition Zrotation Xrotation Yrotation 
			JOINT LowerLeg_L
			{
				OFFSET 39.0811 0.0 -1.23785e-05
				CHANNELS 6 Xposition Yposition Zposition Zrotation Xrotation Yrotation 
				JOINT Foot_L
				{
					OFFSET 40.9854 0.0 -1.26872e-05
					CHANNELS 6 Xposition Yposition Zposition Zrotation Xrotation Yrotation 
					JOINT Toes_L
					{
						OFFSET 11.7543 0.0 0.0
						CHANNELS 6 Xposition Yposition Zposition Zrotation Xrotation Yrotation 
						End Site
						{
							OFFSET 0.0 0.0 0.0
						}
					}
				}
			}
		}
		JOINT UpperLeg_R
		{
			OFFSET -2.19251 6.46944 0.0
			CHANNELS 6 Xposition Yposition Zposition Zrotation Xrotation Yrotation 
			JOINT LowerLeg_R
			{
				OFFSET -39.0811 -0.00228153 -0.0401928
				CHANNELS 6 Xposition Yposition Zposition Zrotation Xrotation Yrotation 
				JOINT Foot_R
				{
					OFFSET -40.9854 0.0 0.0
					CHANNELS 6 Xposition Yposition Zposition Zrotation Xrotation Yrotation 
					JOINT Toes_R
					{
						OFFSET -11.7543 0.0 0.0
						CHANNELS 6 Xposition Yposition Zposition Zrotation Xrotation Yrotation 
						End Site
						{
							OFFSET 0.0 0.0 0.0
						}
					}
				}
			}
		}
	}
}
MOTION
Frames:	9
Frame Time:	0.0333333
0.000000 0.000000 0.000000 0.000000 0.000000 -0.000000 -2.150970 86.999000 -427.112000 81.835800 -3.291400 -16.719000 15.735700 0.000005 -0.000001 74.978800 81.092500 -71.035300 8.984550 -0.406207 -0.000000 9.631500 -4.525960 8.265980 16.377300 -0.000001 -0.000001 -1.995740 2.159920 0.964218 6.456720 -0.000001 -0.000000 -4.259140 9.086060 -6.696480 12.994200 -0.242716 4.980390 -87.832000 -6.818600 -72.312900 5.348090 -0.000007 -0.000001 -74.194100 30.737300 -20.372200 24.328600 0.000019 0.000005 -11.915200 1.755360 -98.228600 22.291600 -0.000001 0.000005 7.334500 5.645760 -14.622800 12.994500 -0.242716 -4.980390 90.751300 -2.161890 -70.841800 -5.348130 -0.000001 -0.000004 -65.142700 30.718300 15.857900 -24.328900 0.000322 -0.000009 -0.743428 -0.147364 -78.709100 -22.291500 -0.000108 -0.000004 4.148000 5.571800 -9.776430 -2.192480 -6.469440 -0.000000 -174.959000 -4.936810 -1.557410 39.081100 -0.000007 -0.000012 -0.093736 0.039254 67.280100 40.985400 -0.000006 -0.000013 -2.642390 -0.364354 -26.320300 11.754300 -0.000000 0.000003 -0.012780 -0.123365 -21.607000 -2.192510 6.469440 -0.000001 -162.268000 13.852900 138.951000 -39.081100 -0.002282 -0.040193 0.008604 -0.005299 45.218200 -40.985400 0.000008 0.000006 5.058870 3.844160 -69.961500 -11.754300 -0.000006 -0.000006 -0.020859 -0.172001 -23.602000
0.000000 0.000000 0.000000 0.000000 0.000000 -0.000000 -2.907070 83.207900 -419.376000 81.649400 -4.717050 -14.920300 15.735700 0.000005 -0.000001 81.848700 81.503000 -77.925400 8.984550 -0.406207 -0.000000 9.154990 -2.348720 8.029300 16.377300 -0.000001 -0.000001 -1.588680 2.348860 0.107932 6.456720 -0.000001 -0.000000 -2.404930 7.230060 -6.363320 12.994200 -0.242716 4.980390 -88.307600 -5.014180 -71.319900 5.348090 -0.000007 -0.000001 -75.347100 33.395200 -12.758400 24.328600 0.000019 0.000005 -5.347970 -0.774393 -81.554200 22.291600 -0.000001 0.000005 4.086770 5.641210 -14.245600 12.994500 -0.242716 -4.980390 89.282200 2.081240 -70.974600 -5.348130 -0.000001 -0.000004 -60.434400 31.252600 5.123190 -24.328900 0.000322 -0.000009 -2.142550 -0.269853 -82.792400 -22.291500 -0.000108 -0.000004 7.089800 5.566610 -9.520850 -2.192480 -6.469440 -0.000000 -174.339000 -7.729230 -10.868300 39.081100 -0.000007 -0.000012 -0.183130 -0.008975 92.808800 40.985400 -0.000006 -0.000013 0.356703 -3.846670 -25.736800 11.754300 -0.000000 0.000003 -0.013866 -0.130568 -21.902300 -2.192510 6.469440 -0.000001 -163.981000 9.175270 142.327000 -39.081100 -0.002282 -0.040193 0.054836 -0.035149 55.744600 -40.985400 0.000008 0.000006 7.450740 -3.944640 -82.783900 -11.754300 -0.000006 -0.000006 -0.005074 -0.062183 -19.103200
0.000000 0.000000 0.000000 0.000000 0.000000 -0.000000 -3.408780 80.750800 -412.432000 80.658400 -6.315740 -12.346600 15.735700 0.000005 -0.000001 89.428100 80.911100 -85.276800 8.984550 -0.406207 -0.000000 10.427500 -0.083410 8.305120 16.377300 -0.000001 -0.000001 -1.931470 2.567110 -0.119859 6.456720 -0.000001 -0.000000 -1.853910 6.330310 -7.369190 12.994200 -0.242716 4.980390 -88.970200 -2.913230 -70.519200 5.348090 -0.000007 -0.000001 -74.722900 33.651300 -5.976360 24.328600 0.000019 0.000005 2.614180 1.430120 -61.558400 22.291600 -0.000001 0.000005 2.097120 5.642880 -14.326200 12.994500 -0.242716 -4.980390 87.847800 6.455700 -71.513300 -5.348130 -0.000001 -0.000004 -53.332200 31.842500 -12.638100 -24.328900 0.000322 -0.000009 -0.112358 -0.007289 -87.965000 -22.291500 -0.000108 -0.000004 9.456780 5.560440 -9.200160 -2.192480 -6.469440 -0.000000 -173.869000 -9.216800 -22.707900 39.081100 -0.000007 -0.000012 -0.450926 -0.204906 114.439000 40.985400 -0.000006 -0.000013 6.055890 -4.409560 -26.749600 11.754300 -0.000000 0.000003 -0.010992 -0.110918 -21.097200 -2.192510 6.469440 -0.000001 -165.119000 6.775720 148.548000 -39.081100 -0.002282 -0.040193 0.105580 -0.057361 60.740300 -40.985400 0.000008 0.000006 5.130200 -5.291640 -89.205900 -11.754300 -0.000006 -0.000006 -0.004795 -0.059467 -18.992600
0.000000 0.000000 0.000000 0.000000 0.000000 -0.000000 -3.585960 79.617200 -405.288000 82.762000 -7.852030 -11.834900 15.735700 0.000005 -0.000001 94.055600 81.145300 -90.663500 8.984550 -0.406207 -0.000000 9.871070 1.307240 6.666570 16.377300 -0.000001 -0.000001 -1.843420 2.039170 0.204090 6.456720 -0.000001 -0.000000 -0.838585 5.469330 -8.456050 12.994200 -0.242716 4.980390 -89.315400 -1.915570 -70.329300 5.348090 -0.000007 -0.000001 -73.089400 33.335200 4.310610 24.328600 0.000019 0.000005 7.845530 5.413890 -55.588600 22.291600 -0.000001 0.000005 -4.892680 5.620760 -12.700300 12.994500 -0.242716 -4.980390 87.872000 6.862160 -72.728800 -5.348130 -0.000001 -0.000004 -50.105000 31.040600 -30.942000 -24.328900 0.000322 -0.000009 3.822250 -0.337360 -94.977100 -22.291500 -0.000108 -0.000004 7.682600 5.589630 -10.750300 -2.192480 -6.469440 -0.000000 -177.730000 -8.510170 -38.567800 39.081100 -0.000007 -0.000012 -0.827054 -0.644191 127.913000 40.985400 -0.000006 -0.000013 10.565400 -1.422550 -28.597900 11.754300 -0.000000 0.000003 -0.010505 -0.107381 -20.952500 -2.192510 6.469440 -0.000001 -169.270000 7.955990 154.787000 -39.081100 -0.002282 -0.040193 0.102455 -0.055479 60.797800 -40.985400 0.000008 0.000006 4.259640 -2.881220 -93.721900 -11.754300 -0.000006 -0.000006 -0.007662 -0.085249 -20.044200
0.000000 0.000000 0.000000 0.000000 0.000000 -0.000000 -3.128770 80.237100 -396.883000 85.792600 -11.776500 -12.606600 15.735700 0.000005 -0.000001 108.348000 81.592000 -106.544000 8.984550 -0.406207 -0.000000 8.140150 5.275740 3.229790 16.377300 -0.000001 -0.000001 -1.860190 1.363060 1.148720 6.456720 -0.000001 -0.000000 0.043451 1.980950 -8.081770 12.994200 -0.242716 4.980390 -88.831600 -3.010690 -68.784800 5.348090 -0.000007 -0.000001 -70.653800 39.593400 13.504000 24.328600 0.000019 0.000005 5.840180 3.075520 -62.387400 22.291600 -0.000001 0.000005 -8.002410 5.615530 -12.293000 12.994500 -0.242716 -4.980390 88.833100 4.272450 -74.714000 -5.348130 -0.000001 -0.000004 -52.120100 28.630800 -42.159900 -24.328900 0.000322 -0.000009 5.440850 -1.375150 -104.163000 -22.291500 -0.000108 -0.000004 6.648760 5.587410 -10.620700 -2.192480 -6.469440 -0.000000 177.044000 -8.905740 -50.449400 39.081100 -0.000007 -0.000012 -0.721539 -0.611307 130.271000 40.985400 -0.000006 -0.000013 10.860900 -1.334850 -35.828900 11.754300 -0.000000 0.000003 -0.010981 -0.110836 -21.093900 -2.192510 6.469440 -0.000001 -176.156000 8.064430 162.321000 -39.081100 -0.002282 -0.040193 0.029292 -0.018068 55.272300 -40.985400 0.000008 0.000006 4.202570 1.749760 -92.074000 -11.754300 -0.000006 -0.000006 -1.032350 -1.143160 -24.139800
0.000000 0.000000 0.000000 0.000000 0.000000 -0.000000 -2.487450 82.747400 -387.058000 88.889100 -15.340400 -12.038400 15.735700 0.000005 -0.000001 122.234000 81.122200 -122.153000 8.984550 -0.406207 -0.000000 7.321420 9.435420 -0.442020 16.377300 -0.000001 -0.000001 -1.693720 0.748396 1.586520 6.456720 -0.000001 -0.000000 0.864480 -1.774680 -6.462890 12.994200 -0.242716 4.980390 -87.800800 -5.335200 -67.561000 5.348090 -0.000007 -0.000001 -70.525400 42.654100 20.878700 24.328600 0.000019 0.000005 0.617863 0.233724 -69.399500 22.291600 -0.000001 0.000005 -10.173200 5.588570 -10.666800 12.994500 -0.242716 -4.980390 89.396300 2.380740 -75.770800 -5.348130 -0.000001 -0.000004 -53.529100 27.376200 -48.360500 -24.328900 0.000322 -0.000009 0.513206 -0.202700 -112.003000 -22.291500 -0.000108 -0.000004 8.467740 5.583240 -10.386800 -2.192480 -6.469440 -0.000000 173.050000 -8.714830 -54.246400 39.081100 -0.000007 -0.000012 -0.338537 -0.213580 122.249000 40.985400 -0.000006 -0.000013 10.185300 -3.215370 -45.055900 11.754300 -0.000000 0.000003 -0.012424 -0.120950 -21.508100 -2.192510 6.469440 -0.000001 176.290000 7.505870 172.764000 -39.081100 -0.002282 -0.040193 -0.008795 0.012228 44.604500 -40.985400 0.000008 0.000006 3.876280 6.044880 -82.180600 -11.754300 -0.000006 -0.000006 -0.081420 -0.395896 -33.015500
0.000000 0.000000 0.000000 0.000000 0.000000 -0.000000 -2.000450 86.326800 -377.127000 91.727100 -15.823700 -13.377900 15.735700 0.000005 -0.000001 130.791000 81.458300 -132.158000 8.984550 -0.406207 -0.000000 5.383830 11.164700 -3.263750 16.377300 -0.000001 -0.000001 -1.751540 0.104116 1.659260 6.456720 -0.000001 -0.000000 1.618060 -4.093900 -5.360520 12.994200 -0.242716 4.980390 -86.715800 -7.890870 -67.315200 5.348090 -0.000007 -0.000001 -72.207800 41.780300 27.389300 24.328600 0.000019 0.000005 -0.105496 -0.027589 -75.238400 22.291600 -0.000001 0.000005 -10.232500 5.575750 -9.988850 12.994500 -0.242716 -4.980390 89.761200 0.948304 -75.861600 -5.348130 -0.000001 -0.000004 -55.051300 28.346500 -50.717600 -24.328900 0.000322 -0.000009 -2.370620 1.192780 -116.689000 -22.291500 -0.000108 -0.000004 7.086660 5.578360 -10.086600 -2.192480 -6.469440 -0.000000 170.486000 -5.754810 -56.902300 39.081100 -0.000007 -0.000012 -0.077323 -0.024809 107.799000 40.985400 -0.000006 -0.000013 9.523680 -8.367680 -52.131400 11.754300 -0.000000 0.000003 -0.010549 -0.107704 -20.965700 -2.192510 6.469440 -0.000001 171.036000 8.381170 179.331000 -39.081100 -0.002282 -0.040193 0.022972 -0.029721 33.507600 -40.985400 0.000008 0.000006 3.299260 8.140630 -61.201800 -11.754300 -0.000006 -0.000006 -0.255457 -0.730144 -48.339400
0.000000 0.000000 0.000000 0.000000 0.000000 -0.000000 -1.840210 89.744200 -367.411000 91.968200 -13.745100 -13.503600 15.735700 0.000005 -0.000001 132.703000 81.685700 -134.374000 8.984550 -0.406207 -0.000000 4.695600 11.302400 -3.810810 16.377300 -0.000001 -0.000001 -2.257730 -0.509125 1.628870 6.456720 -0.000001 -0.000000 1.824420 -5.562410 -4.812110 12.994200 -0.242716 4.980390 -85.872800 -10.114700 -67.662600 5.348090 -0.000007 -0.000001 -74.452300 39.353700 32.004000 24.328600 0.000019 0.000005 -1.587540 -0.295206 -79.446100 22.291600 -0.000001 0.000005 -9.353900 5.566710 -9.521070 12.994500 -0.242716 -4.980390 89.989100 0.042574 -75.658300 -5.348130 -0.000001 -0.000004 -56.475000 30.533300 -50.644900 -24.328900 0.000322 -0.000009 -1.512560 0.810389 -118.177000 -22.291500 -0.000108 -0.000004 5.100490 5.548910 -8.654020 -2.192480 -6.469440 -0.000000 171.815000 -2.846890 -55.268500 39.081100 -0.000007 -0.000012 0.058636 -0.000181 89.814300 40.985400 -0.000006 -0.000013 9.635900 -12.306600 -57.593600 11.754300 -0.000000 0.000003 -0.009485 -0.099755 -20.640600 -2.192510 6.469440 -0.000001 168.290000 13.002600 -174.259000 -39.081100 -0.002282 -0.040193 0.043317 -0.089566 24.067300 -40.985400 0.000008 0.000006 -2.507160 10.832700 -37.069600 -11.754300 -0.000006 -0.000006 -0.161959 -0.577820 -41.088100
0.000000 0.000000 0.000000 0.000000 0.000000 -0.000000 -2.169540 92.091600 -357.913000 90.986100 -10.964600 -12.769700 15.735700 0.000005 -0.000001 131.306000 81.776300 -132.705000 8.984550 -0.406207 -0.000000 4.793600 10.873000 -3.258290 16.377300 -0.000001 -0.000001 -3.011160 -1.182460 1.559620 6.456720 -0.000001 -0.000000 1.831150 -6.377100 -5.046450 12.994200 -0.242716 4.980390 -85.328800 -11.761800 -68.156600 5.348090 -0.000007 -0.000001 -76.274300 37.490500 34.260100 24.328600 0.000019 0.000005 -2.633160 -0.353727 -82.353500 22.291600 -0.000001 0.000005 -7.398680 5.566830 -9.527750 12.994500 -0.242716 -4.980390 90.128900 -0.508015 -75.762200 -5.348130 -0.000001 -0.000004 -56.701800 32.981200 -49.049600 -24.328900 0.000322 -0.000009 -1.993390 0.990153 -116.394000 -22.291500 -0.000108 -0.000004 6.172460 5.539560 -8.216330 -2.192480 -6.469440 -0.000000 175.086000 -1.094260 -50.051600 39.081100 -0.000007 -0.000012 0.103442 -0.038757 69.457200 40.985400 -0.000006 -0.000013 9.265560 -7.049040 -62.836200 11.754300 -0.000000 0.000003 -0.009687 -0.101297 -20.703600 -2.192510 6.469440 -0.000001 167.780000 15.092800 -168.492000 -39.081100 -0.002282 -0.040193 0.069763 -0.180496 20.209100 -40.985400 0.000008 0.000006 -7.878730 5.902160 -26.123600 -11.754300 -0.000006 -0.000006 -0.017327 -0.152008 -22.779000
